<?xml version="1.0"?>
<svg xmlns="http://www.w3.org/2000/svg" height="512px" viewBox="0 0 512 512" width="512px"><path d="m390.824219 57.332031-390.824219 390.855469 63.808594 63.8125 390.824218-390.855469zm21.214843 63.8125-56.324218 56.328125-21.210938-21.214844 56.320313-56.328124zm-369.445312 327.042969 270.609375-270.632812 21.214844 21.214843-270.609375 270.632813zm0 0" fill="#33b8ff"/><path d="m369.933594 0h30.117187v33.066406h-30.117187zm0 0" fill="#33b8ff"/><path d="m277.179688 45.113281 21.726562-20.863281 24.382812 25.390625-21.726562 20.863281zm0 0" fill="#33b8ff"/><path d="m440.890625 208.824219 21.726563-20.863281 24.382812 25.390624-21.722656 20.863282zm0 0" fill="#33b8ff"/><path d="m478.9375 112.761719h33.0625v30.121093h-33.0625zm0 0" fill="#33b8ff"/><path d="m448.777344 42.730469 33.417968-33.417969 21.296876 21.296875-33.417969 33.421875zm0 0" fill="#33b8ff"/></svg>
